<?xml version="1.0" encoding="UTF-8" standalone="no"?>
<svg
   xmlns="http://www.w3.org/2000/svg"
   height="180"
   width="180"
   viewBox="0 0 180 180">
   <path  style="fill:#44aa77;" d="M 40,3.662 C 20.06,3.662 3.662,20.06 3.662,40 l 0,100 c 0,19.9 16.398,36.3 36.338,36.3 l 100,0 c 19.9,0 36.3,-16.4 36.3,-36.3 l 0,-100 C 176.3,20.06 159.9,3.662 140,3.662 l -100,0 z"  />
   <path  style="fill:#ffffff" d="m 145.5,105.3 q -0.3,-0.8 -0.8,-1.4 -0.5,-0.7 -1.3,-1.2 -0.7,-0.4 -1.6,-0.7 -1,-0.3 -2.1,-0.3 -2.1,0 -3.3,0.9 -1.2,0.8 -1.2,2.3 0,1.1 0.8,1.7 0.7,0.7 1.9,1.3 1.3,0.5 2.8,1 1.6,0.5 3.3,1.1 1.6,0.6 3.2,1.5 1.6,0.8 2.8,2 1.2,1.2 2,2.8 0.7,1.6 0.7,3.9 0,2.5 -0.9,4.4 -1,1.9 -2.6,3.3 -1.6,1.3 -3.9,2 -2.2,0.6 -4.8,0.6 -2.4,0 -4.5,-0.6 -2.1,-0.7 -3.8,-1.9 -1.7,-1.2 -2.9,-2.9 -1.3,-1.7 -2,-3.9 l 6,-2.2 q 0.5,1.2 1.3,2.2 0.7,1 1.7,1.7 0.9,0.7 2,1.1 1.1,0.3 2.4,0.3 1.2,0 2.2,-0.2 1,-0.3 1.7,-0.8 0.8,-0.5 1.1,-1.3 0.4,-0.8 0.4,-1.8 0,-1.2 -0.7,-2 -0.8,-0.9 -2,-1.5 -1.2,-0.6 -2.8,-1.1 -1.6,-0.5 -3.2,-1.1 -1.7,-0.6 -3.2,-1.3 -1.6,-0.8 -2.8,-1.9 -1.3,-1.1 -2,-2.7 -0.8,-1.5 -0.8,-3.8 0,-1.9 0.8,-3.6 0.8,-1.65 2.2,-2.93 1.5,-1.27 3.6,-2 2.2,-0.76 4.9,-0.76 2.3,0 4.1,0.59 1.9,0.59 3.3,1.65 1.4,1.04 2.4,2.45 1,1.5 1.5,3.2 l -5.9,1.9 z m -33.2,0 q -0.3,-0.8 -0.8,-1.4 -0.6,-0.7 -1.3,-1.2 -0.7,-0.4 -1.6,-0.7 -1,-0.3 -2.1,-0.3 -2.1,0 -3.3,0.9 -1.2,0.8 -1.2,2.3 0,1.1 0.8,1.7 0.7,0.7 1.9,1.3 1.3,0.5 2.8,1 1.6,0.5 3.3,1.1 1.6,0.6 3.2,1.5 1.6,0.8 2.8,2 1.2,1.2 2,2.8 0.7,1.6 0.7,3.9 0,2.5 -0.9,4.4 -1,1.9 -2.6,3.3 -1.6,1.3 -3.9,2 -2.2,0.6 -4.8,0.6 -2.4,0 -4.5,-0.6 -2.1,-0.7 -3.77,-1.9 -1.68,-1.2 -2.93,-2.9 -1.25,-1.7 -1.98,-3.9 l 5.98,-2.2 q 0.5,1.2 1.3,2.2 0.7,1 1.7,1.7 0.9,0.7 2,1.1 1.1,0.3 2.4,0.3 1.2,0 2.2,-0.2 1,-0.3 1.7,-0.8 0.8,-0.5 1.1,-1.3 0.4,-0.8 0.4,-1.8 0,-1.2 -0.7,-2 -0.8,-0.9 -2,-1.5 -1.2,-0.6 -2.8,-1.1 -1.6,-0.5 -3.2,-1.1 -1.7,-0.6 -3.2,-1.3 -1.59,-0.8 -2.82,-1.9 -1.23,-1.1 -1.98,-2.7 -0.76,-1.5 -0.76,-3.8 0,-1.9 0.76,-3.6 0.78,-1.65 2.24,-2.93 1.47,-1.27 3.56,-2 2.1,-0.76 4.9,-0.76 2.3,0 4.1,0.59 1.9,0.59 3.3,1.65 1.4,1.04 2.4,2.45 1,1.5 1.5,3.2 l -5.9,1.9 z m -29.8,24.7 -2.62,-7.1 -13.06,0 -2.6,7.1 -7.02,0 12.97,-33.92 6.38,0 12.97,33.92 -7.02,0 z m -8.08,-21.8 q -0.26,-0.6 -0.56,-1.5 -0.29,-0.8 -0.5,-1.6 -0.19,0.8 -0.5,1.6 -0.3,0.9 -0.56,1.5 l -3.36,8.8 8.81,0 -3.33,-8.8 z m -46.05,21.8 0,-33.92 14.52,0 q 3.21,0 5.41,0.94 2.2,0.92 3.57,2.46 1.37,1.52 1.96,3.42 0.61,1.9 0.61,3.9 0,1.2 -0.28,2.5 -0.29,1.2 -0.88,2.4 -0.59,1.2 -1.51,2.3 -0.92,1 -2.22,1.8 -1.27,0.8 -2.95,1.2 -1.65,0.5 -3.71,0.5 l -7.98,0 0,12.5 -6.54,0 z m 14.81,-18.7 q 1.25,0 2.1,-0.4 0.85,-0.4 1.37,-1.1 0.54,-0.6 0.78,-1.4 0.23,-0.8 0.23,-1.6 0,-0.7 -0.21,-1.5 -0.19,-0.8 -0.71,-1.5 -0.49,-0.7 -1.37,-1.1 -0.87,-0.4 -2.19,-0.4 l -8.27,0 0,9 8.27,0 z m 83.32,-27.35 0,-33.87 15.7,0 q 3.2,0 5.4,0.89 2.2,0.88 3.5,2.34 1.3,1.47 1.9,3.38 0.5,1.91 0.5,3.99 0,1.44 -0.4,2.93 -0.4,1.46 -1.2,2.79 -0.8,1.32 -2.1,2.41 -1.2,1.06 -2.8,1.65 l 6.5,13.49 -7.3,0 -6.3,-12.64 -6.9,0 0,12.64 -6.5,0 z m 15.8,-18.83 q 1.3,0 2.1,-0.35 0.9,-0.38 1.4,-0.99 0.5,-0.62 0.7,-1.42 0.3,-0.8 0.3,-1.68 0,-0.8 -0.3,-1.58 -0.1,-0.8 -0.6,-1.42 -0.5,-0.64 -1.4,-1.01 -0.9,-0.38 -2.2,-0.38 l -9.3,0 0,8.83 9.3,0 z m -46.96,18.83 0,-33.87 23.06,0 0,6.21 -16.5,0 0,7.11 9.7,0 0,6.19 -9.7,0 0,8.17 17.6,0 0,6.19 -24.16,0 z m -18.24,0 -6.28,0 -12,-33.87 7.06,0 7.44,22.15 q 0.19,0.54 0.36,1.18 0.19,0.62 0.33,1.16 0.12,-0.52 0.28,-1.13 0.17,-0.62 0.36,-1.21 l 7.44,-22.15 6.95,0 -11.95,33.87 z m -35.66,0.59 q -2.74,0 -4.92,-0.71 -2.17,-0.73 -3.85,-1.96 -1.65,-1.25 -2.83,-2.93 -1.18,-1.7 -1.94,-3.64 -0.73,-1.96 -1.08,-4.06 -0.33,-2.13 -0.33,-4.23 0,-2.08 0.33,-4.18 0.35,-2.13 1.08,-4.06 0.76,-1.96 1.94,-3.64 1.18,-1.7 2.83,-2.93 1.68,-1.25 3.85,-1.96 2.18,-0.73 4.92,-0.73 2.74,0 4.89,0.73 2.17,0.71 3.82,1.96 1.66,1.23 2.84,2.93 1.18,1.68 1.91,3.64 0.76,1.93 1.09,4.06 0.35,2.1 0.35,4.18 0,2.1 -0.35,4.23 -0.33,2.1 -1.09,4.06 -0.73,1.94 -1.91,3.64 -1.18,1.68 -2.84,2.93 -1.65,1.23 -3.82,1.96 -2.15,0.71 -4.89,0.71 z m 0,-6.31 q 2.26,0 3.8,-1.06 1.56,-1.07 2.5,-2.72 0.97,-1.65 1.4,-3.61 0.42,-1.99 0.42,-3.83 0,-1.3 -0.19,-2.62 -0.16,-1.35 -0.56,-2.58 -0.41,-1.25 -1.04,-2.33 -0.64,-1.11 -1.54,-1.92 -0.9,-0.82 -2.1,-1.3 -1.18,-0.47 -2.69,-0.47 -1.54,0 -2.74,0.5 -1.18,0.49 -2.1,1.34 -0.9,0.83 -1.54,1.94 -0.64,1.11 -1.04,2.36 -0.4,1.25 -0.59,2.55 -0.16,1.3 -0.16,2.53 0,1.94 0.42,3.95 0.43,1.98 1.37,3.61 0.97,1.61 2.53,2.64 1.56,1.02 3.85,1.02 z M 40,11.22 C 24.12,11.22 11.22,24.12 11.22,40 l 0,100 c 0,15.9 12.9,28.8 28.78,28.8 l 100,0 c 15.9,0 28.8,-12.9 28.8,-28.8 l 0,-100 C 168.8,24.12 155.9,11.22 140,11.22 l -100,0 z m 0,7.56 100,0 c 11.8,0 21.2,9.4 21.2,21.22 l 0,100 c 0,11.8 -9.4,21.2 -21.2,21.2 l -100,0 c -11.82,0 -21.22,-9.4 -21.22,-21.2 l 0,-100 c 0,-11.82 9.4,-21.22 21.22,-21.22 z" />
</svg>